<svg id="visual" viewBox="0 0 900 600" width="900" height="600" xmlns="http://www.w3.org/2000/svg" xmlns:xlink="http://www.w3.org/1999/xlink" version="1.1"><rect x="0" y="0" width="900" height="600" fill="#001220"></rect><defs><linearGradient id="grad1_0" x1="33.3%" y1="0%" x2="100%" y2="100%"><stop offset="20%" stop-color="#e53170" stop-opacity="1"></stop><stop offset="80%" stop-color="#e53170" stop-opacity="1"></stop></linearGradient></defs><defs><linearGradient id="grad1_1" x1="33.3%" y1="0%" x2="100%" y2="100%"><stop offset="20%" stop-color="#e53170" stop-opacity="1"></stop><stop offset="80%" stop-color="#88337c" stop-opacity="1"></stop></linearGradient></defs><defs><linearGradient id="grad1_2" x1="33.3%" y1="0%" x2="100%" y2="100%"><stop offset="20%" stop-color="#2e2c5a" stop-opacity="1"></stop><stop offset="80%" stop-color="#88337c" stop-opacity="1"></stop></linearGradient></defs><defs><linearGradient id="grad1_3" x1="33.3%" y1="0%" x2="100%" y2="100%"><stop offset="20%" stop-color="#2e2c5a" stop-opacity="1"></stop><stop offset="80%" stop-color="#001220" stop-opacity="1"></stop></linearGradient></defs><defs><linearGradient id="grad2_0" x1="0%" y1="0%" x2="66.7%" y2="100%"><stop offset="20%" stop-color="#e53170" stop-opacity="1"></stop><stop offset="80%" stop-color="#e53170" stop-opacity="1"></stop></linearGradient></defs><defs><linearGradient id="grad2_1" x1="0%" y1="0%" x2="66.7%" y2="100%"><stop offset="20%" stop-color="#88337c" stop-opacity="1"></stop><stop offset="80%" stop-color="#e53170" stop-opacity="1"></stop></linearGradient></defs><defs><linearGradient id="grad2_2" x1="0%" y1="0%" x2="66.7%" y2="100%"><stop offset="20%" stop-color="#88337c" stop-opacity="1"></stop><stop offset="80%" stop-color="#2e2c5a" stop-opacity="1"></stop></linearGradient></defs><defs><linearGradient id="grad2_3" x1="0%" y1="0%" x2="66.7%" y2="100%"><stop offset="20%" stop-color="#001220" stop-opacity="1"></stop><stop offset="80%" stop-color="#2e2c5a" stop-opacity="1"></stop></linearGradient></defs><g transform="translate(900, 0)"><path d="M0 486.7C-63.2 480.2 -126.3 473.7 -186.3 449.7C-246.2 425.7 -302.9 384.2 -331.6 331.6C-360.4 279.1 -361.3 215.5 -382.5 158.4C-403.7 101.3 -445.2 50.7 -486.7 0L0 0Z" fill="#0d213e"></path><path d="M0 365.1C-47.4 360.2 -94.8 355.3 -139.7 337.3C-184.6 319.3 -227.1 288.1 -248.7 248.7C-270.3 209.3 -271 161.7 -286.9 118.8C-302.8 76 -333.9 38 -365.1 0L0 0Z" fill="#583370"></path><path d="M0 243.4C-31.6 240.1 -63.2 236.9 -93.1 224.8C-123.1 212.8 -151.4 192.1 -165.8 165.8C-180.2 139.5 -180.6 107.8 -191.2 79.2C-201.8 50.7 -222.6 25.3 -243.4 0L0 0Z" fill="#b9307c"></path><path d="M0 121.7C-15.8 120.1 -31.6 118.4 -46.6 112.4C-61.5 106.4 -75.7 96 -82.9 82.9C-90.1 69.8 -90.3 53.9 -95.6 39.6C-100.9 25.3 -111.3 12.7 -121.7 0L0 0Z" fill="#e53170"></path></g><g transform="translate(0, 600)"><path d="M0 -486.7C45.1 -435.3 90.3 -383.9 152.3 -367.7C214.3 -351.5 293.3 -370.6 344.2 -344.2C395.1 -317.8 417.9 -245.9 437 -181C456.1 -116.1 471.4 -58 486.7 0L0 0Z" fill="#0d213e"></path><path d="M0 -365.1C33.9 -326.5 67.7 -287.9 114.2 -275.8C160.8 -263.6 220 -277.9 258.1 -258.1C296.3 -238.3 313.4 -184.5 327.7 -135.8C342.1 -87.1 353.6 -43.5 365.1 0L0 0Z" fill="#583370"></path><path d="M0 -243.4C22.6 -217.7 45.1 -191.9 76.2 -183.9C107.2 -175.8 146.6 -185.3 172.1 -172.1C197.5 -158.9 209 -123 218.5 -90.5C228 -58 235.7 -29 243.4 0L0 0Z" fill="#b9307c"></path><path d="M0 -121.7C11.3 -108.8 22.6 -96 38.1 -91.9C53.6 -87.9 73.3 -92.6 86 -86C98.8 -79.4 104.5 -61.5 109.2 -45.3C114 -29 117.9 -14.5 121.7 0L0 0Z" fill="#e53170"></path></g></svg>