<svg id="visual" viewBox="0 0 900 600" width="900" height="600" xmlns="http://www.w3.org/2000/svg" xmlns:xlink="http://www.w3.org/1999/xlink" version="1.1"><rect x="0" y="0" width="900" height="600" fill="#001122"></rect><path d="M0 413L21.5 407.3C43 401.7 86 390.3 128.8 383C171.7 375.7 214.3 372.3 257.2 380.5C300 388.7 343 408.3 385.8 406.5C428.7 404.7 471.3 381.3 514.2 374.2C557 367 600 376 642.8 384.3C685.7 392.7 728.3 400.3 771.2 401.8C814 403.3 857 398.7 878.5 396.3L900 394L900 601L878.5 601C857 601 814 601 771.2 601C728.3 601 685.7 601 642.8 601C600 601 557 601 514.2 601C471.3 601 428.7 601 385.8 601C343 601 300 601 257.2 601C214.3 601 171.7 601 128.8 601C86 601 43 601 21.5 601L0 601Z" fill="#c62368"></path><path d="M0 470L21.5 458.7C43 447.3 86 424.7 128.8 417.3C171.7 410 214.3 418 257.2 420.3C300 422.7 343 419.3 385.8 425.2C428.7 431 471.3 446 514.2 455C557 464 600 467 642.8 455.7C685.7 444.3 728.3 418.7 771.2 414.5C814 410.3 857 427.7 878.5 436.3L900 445L900 601L878.5 601C857 601 814 601 771.2 601C728.3 601 685.7 601 642.8 601C600 601 557 601 514.2 601C471.3 601 428.7 601 385.8 601C343 601 300 601 257.2 601C214.3 601 171.7 601 128.8 601C86 601 43 601 21.5 601L0 601Z" fill="#cd5b7f"></path><path d="M0 475L21.5 471.3C43 467.7 86 460.3 128.8 463.8C171.7 467.3 214.3 481.7 257.2 482C300 482.3 343 468.7 385.8 459.2C428.7 449.7 471.3 444.3 514.2 452.2C557 460 600 481 642.8 487.2C685.7 493.3 728.3 484.7 771.2 479.3C814 474 857 472 878.5 471L900 470L900 601L878.5 601C857 601 814 601 771.2 601C728.3 601 685.7 601 642.8 601C600 601 557 601 514.2 601C471.3 601 428.7 601 385.8 601C343 601 300 601 257.2 601C214.3 601 171.7 601 128.8 601C86 601 43 601 21.5 601L0 601Z" fill="#d08398"></path><path d="M0 539L21.5 533.8C43 528.7 86 518.3 128.8 509.2C171.7 500 214.3 492 257.2 493.3C300 494.7 343 505.3 385.8 507.7C428.7 510 471.3 504 514.2 507.3C557 510.7 600 523.3 642.8 523.7C685.7 524 728.3 512 771.2 505.7C814 499.3 857 498.7 878.5 498.3L900 498L900 601L878.5 601C857 601 814 601 771.2 601C728.3 601 685.7 601 642.8 601C600 601 557 601 514.2 601C471.3 601 428.7 601 385.8 601C343 601 300 601 257.2 601C214.3 601 171.7 601 128.8 601C86 601 43 601 21.5 601L0 601Z" fill="#d0a8b2"></path><path d="M0 524L21.5 525.2C43 526.3 86 528.7 128.8 529.5C171.7 530.3 214.3 529.7 257.2 532.2C300 534.7 343 540.3 385.8 542.5C428.7 544.7 471.3 543.3 514.2 539.8C557 536.3 600 530.7 642.8 534.3C685.7 538 728.3 551 771.2 551.5C814 552 857 540 878.5 534L900 528L900 601L878.5 601C857 601 814 601 771.2 601C728.3 601 685.7 601 642.8 601C600 601 557 601 514.2 601C471.3 601 428.7 601 385.8 601C343 601 300 601 257.2 601C214.3 601 171.7 601 128.8 601C86 601 43 601 21.5 601L0 601Z" fill="#cccccc"></path></svg>