<svg id="visual" viewBox="0 0 900 600" width="900" height="600" xmlns="http://www.w3.org/2000/svg" xmlns:xlink="http://www.w3.org/1999/xlink" version="1.1"><rect x="0" y="0" width="900" height="600" fill="#002233"></rect><path d="M0 480L21.5 465.7C43 451.3 86 422.7 128.8 412C171.7 401.3 214.3 408.7 257.2 417.8C300 427 343 438 385.8 432.8C428.7 427.7 471.3 406.3 514.2 414.8C557 423.3 600 461.7 642.8 476.7C685.7 491.7 728.3 483.3 771.2 465C814 446.7 857 418.3 878.5 404.2L900 390L900 601L878.5 601C857 601 814 601 771.2 601C728.3 601 685.7 601 642.8 601C600 601 557 601 514.2 601C471.3 601 428.7 601 385.8 601C343 601 300 601 257.2 601C214.3 601 171.7 601 128.8 601C86 601 43 601 21.5 601L0 601Z" fill="#0066FF" stroke-linecap="round" stroke-linejoin="miter"></path></svg>